<svg width="142" height="18" viewBox="0 0 142 18" fill="none" xmlns="http://www.w3.org/2000/svg">
<g clip-path="url(#clip0_104_696)">
<path d="M19.9476 17.568V9.702C19.9476 6.732 18.0504 4.752 14.9968 4.716C13.3887 4.698 11.7264 5.184 10.57 6.948C9.70276 5.562 8.32956 4.716 6.4143 4.716C5.07724 4.716 3.75824 5.112 2.72834 6.57V5.04H0V17.568H2.76447V10.62C2.76447 8.442 3.97506 7.29 5.83611 7.29C7.64296 7.29 8.56445 8.478 8.56445 10.602V17.568H11.3289V10.62C11.3289 8.442 12.5937 7.29 14.4006 7.29C16.2616 7.29 17.165 8.478 17.165 10.602V17.568H19.9476ZM60.8546 5.04H56.3736V1.224H53.6091V5.04H51.0615V7.524H53.6091V13.248C53.6091 16.164 54.7474 17.892 57.9817 17.892C59.1742 17.892 60.5293 17.532 61.3966 16.92L60.6016 14.58C59.7885 15.048 58.8851 15.282 58.1804 15.282C56.8072 15.282 56.3736 14.436 56.3736 13.176V7.524H60.8546V5.04ZM84.1809 4.716C82.609 4.716 81.5791 5.454 80.8563 6.552V5.04H78.1461V17.568H80.8744V10.548C80.8744 8.478 81.7778 7.326 83.5666 7.326C84.1267 7.326 84.7049 7.398 85.2831 7.632L86.1323 5.058C85.5361 4.824 84.7411 4.716 84.1809 4.716ZM48.8932 6.03C47.5742 5.166 45.7674 4.716 43.7618 4.716C40.5818 4.716 38.5219 6.228 38.5219 8.73C38.5219 10.782 40.0397 12.042 42.8584 12.42L44.1412 12.6C45.6409 12.816 46.3456 13.194 46.3456 13.914C46.3456 14.886 45.3518 15.426 43.4727 15.426C41.5755 15.426 40.2023 14.814 39.2808 14.112L37.998 16.236C39.4976 17.334 41.3948 17.856 43.4546 17.856C47.0864 17.856 49.2004 16.146 49.2004 13.77C49.2004 11.574 47.5381 10.422 44.8098 10.026L43.5269 9.846C42.3344 9.684 41.3948 9.45 41.3948 8.622C41.3948 7.704 42.2983 7.146 43.7979 7.146C45.406 7.146 46.9599 7.758 47.7188 8.226L48.8932 6.03ZM122.215 4.716C120.643 4.716 119.613 5.454 118.89 6.552V5.04H116.18V17.568H118.909V10.548C118.909 8.478 119.812 7.326 121.601 7.326C122.161 7.326 122.739 7.398 123.317 7.632L124.166 5.058C123.552 4.824 122.775 4.716 122.215 4.716ZM86.9454 11.304C86.9454 15.102 89.6015 17.892 93.6488 17.892C95.546 17.892 96.8108 17.478 98.184 16.398L96.865 14.202C95.8351 14.94 94.751 15.336 93.5765 15.336C91.3903 15.318 89.7822 13.734 89.7822 11.322C89.7822 8.91 91.3903 7.344 93.5765 7.308C94.7691 7.308 95.8351 7.704 96.865 8.442L98.184 6.246C96.8108 5.166 95.546 4.752 93.6488 4.752C89.6195 4.716 86.9454 7.506 86.9454 11.304ZM112.585 11.304V5.04H109.856V6.552C108.989 5.418 107.67 4.716 105.881 4.716C102.358 4.716 99.5933 7.47 99.5933 11.304C99.5933 15.138 102.358 17.892 105.881 17.892C107.67 17.892 108.989 17.19 109.856 16.056V17.568H112.585V11.304ZM102.394 11.304C102.394 9.108 103.839 7.29 106.206 7.29C108.465 7.29 110.001 9.018 110.001 11.304C110.001 13.59 108.483 15.318 106.206 15.318C103.839 15.318 102.394 13.5 102.394 11.304ZM69.3648 4.716C65.6788 4.716 63.0951 7.398 63.0951 11.304C63.0951 15.282 65.7872 17.892 69.5455 17.892C71.4427 17.892 73.1772 17.424 74.695 16.128L73.3579 14.112C72.31 14.958 70.9548 15.426 69.7081 15.426C67.9374 15.426 66.3474 14.616 65.9499 12.366H75.2913C75.3093 12.024 75.3455 11.682 75.3455 11.322C75.3274 7.398 72.9062 4.716 69.3648 4.716ZM69.3287 7.164C71.0994 7.164 72.2196 8.262 72.5087 10.206H65.986C66.2751 8.388 67.3773 7.164 69.3287 7.164ZM137.989 11.304V0H135.26V6.552C134.393 5.418 133.074 4.716 131.285 4.716C127.762 4.716 124.998 7.47 124.998 11.304C124.998 15.138 127.762 17.892 131.285 17.892C133.074 17.892 134.393 17.19 135.26 16.056V17.568H137.989V11.304ZM141.187 16.416C141.295 16.416 141.404 16.434 141.494 16.47C141.584 16.506 141.675 16.56 141.747 16.632C141.819 16.704 141.874 16.794 141.928 16.884C141.964 16.974 142 17.082 142 17.19C142 17.298 141.982 17.406 141.928 17.496C141.892 17.586 141.819 17.676 141.747 17.748C141.675 17.82 141.584 17.874 141.494 17.928C141.404 17.964 141.295 18 141.187 18C141.079 18 140.97 17.982 140.862 17.928C140.753 17.892 140.681 17.82 140.609 17.748C140.536 17.676 140.482 17.586 140.428 17.496C140.392 17.406 140.356 17.298 140.356 17.19C140.356 17.082 140.374 16.974 140.428 16.884C140.464 16.794 140.536 16.704 140.609 16.632C140.681 16.56 140.771 16.506 140.862 16.47C140.952 16.434 141.06 16.416 141.187 16.416ZM141.187 17.82C141.277 17.82 141.35 17.802 141.422 17.766C141.494 17.73 141.566 17.694 141.621 17.64C141.675 17.586 141.729 17.514 141.747 17.442C141.783 17.37 141.801 17.28 141.801 17.208C141.801 17.118 141.783 17.046 141.747 16.974C141.711 16.902 141.675 16.83 141.621 16.776C141.566 16.722 141.494 16.668 141.422 16.65C141.35 16.614 141.259 16.596 141.187 16.596C141.097 16.596 141.024 16.614 140.934 16.65C140.862 16.686 140.789 16.722 140.735 16.776C140.681 16.83 140.627 16.902 140.609 16.974C140.573 17.046 140.555 17.136 140.555 17.208C140.555 17.298 140.573 17.37 140.609 17.442C140.645 17.514 140.681 17.586 140.735 17.64C140.789 17.694 140.862 17.748 140.934 17.766C141.006 17.802 141.097 17.82 141.187 17.82ZM141.223 16.83C141.313 16.83 141.386 16.848 141.44 16.902C141.494 16.938 141.512 17.01 141.512 17.082C141.512 17.136 141.494 17.19 141.458 17.226C141.422 17.262 141.35 17.298 141.277 17.298L141.512 17.568H141.313L141.097 17.298H141.024V17.568H140.862V16.83H141.223ZM141.042 16.974V17.172H141.223C141.259 17.172 141.295 17.172 141.331 17.154C141.35 17.136 141.368 17.118 141.368 17.082C141.368 17.046 141.35 17.028 141.331 17.01C141.313 16.992 141.277 16.992 141.223 16.992H141.042V16.974ZM127.798 11.304C127.798 9.108 129.244 7.29 131.611 7.29C133.869 7.29 135.405 9.018 135.405 11.304C135.405 13.59 133.887 15.318 131.611 15.318C129.244 15.318 127.798 13.5 127.798 11.304ZM35.378 11.304V5.04H32.6497V6.552C31.7824 5.418 30.4634 4.716 28.6746 4.716C25.1513 4.716 22.3868 7.47 22.3868 11.304C22.3868 15.138 25.1513 17.892 28.6746 17.892C30.4634 17.892 31.7824 17.19 32.6497 16.056V17.568H35.378V11.304ZM25.1874 11.304C25.1874 9.108 26.6329 7.29 28.9999 7.29C31.2584 7.29 32.7942 9.018 32.7942 11.304C32.7942 13.59 31.2765 15.318 28.9999 15.318C26.6329 15.318 25.1874 13.5 25.1874 11.304Z" fill="#1E293B"/>
</g>
<defs>
<clipPath id="clip0_104_696">
<rect width="142" height="18" fill="white"/>
</clipPath>
</defs>
</svg>
